<?xml version="1.0" encoding="UTF-8"?>
<svg version="1.1" xmlns="http://www.w3.org/2000/svg" width="2048" height="2265">
<path d="M0 0 C1.61160195 -0.00302497 3.22320247 -0.00691618 4.83480048 -0.01159257 C9.23902878 -0.02183694 13.64317536 -0.01969985 18.04741025 -0.01541197 C22.80693 -0.01293823 27.5664304 -0.02196699 32.32594299 -0.02944946 C41.64136966 -0.04218089 50.95676748 -0.04399206 60.27220139 -0.0416492 C67.84713807 -0.039864 75.42206601 -0.04162002 82.99700165 -0.04587364 C84.61601917 -0.04676643 84.61601917 -0.04676643 86.26774411 -0.04767724 C88.46066827 -0.04888904 90.65359242 -0.05010317 92.84651658 -0.05131962 C113.39968265 -0.06218935 133.9528323 -0.06003546 154.5059993 -0.05393478 C173.29014635 -0.04876718 192.07424153 -0.06001793 210.85837832 -0.07903299 C230.16506577 -0.09842656 249.47172869 -0.10666466 268.77842593 -0.10290974 C279.60994343 -0.10099987 290.44141679 -0.10346433 301.27292633 -0.11762428 C310.49490032 -0.12955847 319.716803 -0.1309202 328.93877801 -0.11883412 C333.63937761 -0.1129595 338.3398469 -0.11180661 343.0404377 -0.12383652 C347.35235222 -0.13474298 351.66402838 -0.1315358 355.97593197 -0.11757483 C357.5270037 -0.11494093 359.0780944 -0.11725285 360.62914744 -0.1253107 C388.34932172 -0.2592023 413.12430037 9.72172519 432.98895264 29.18257141 C451.05831311 47.69467272 460.49491303 72.62541488 461.18426514 98.26069641 C460.49802127 122.44070074 453.12257572 144.98574288 436.93426514 163.26069641 C436.40703857 163.92971985 435.87981201 164.59874329 435.33660889 165.28804016 C420.75427412 183.3816005 396.69864831 194.50498737 373.93426514 197.26069641 C367.53752554 197.63166323 361.12078914 197.54161092 354.71600342 197.53193665 C352.7847573 197.5363302 350.85351308 197.54163463 348.92227173 197.54777527 C344.78143279 197.55922717 340.6406447 197.56473114 336.49979019 197.56565666 C329.94232842 197.56760689 323.38497096 197.58571197 316.82754517 197.60641479 C300.54206206 197.65547169 284.2565508 197.68646298 267.9710083 197.7077179 C255.30681108 197.72427018 242.64270397 197.74715931 229.978567 197.79073864 C223.46994761 197.81242839 216.96149978 197.820581 210.45284677 197.8183459 C206.3921555 197.82002108 202.33157488 197.83412088 198.27092361 197.85155869 C196.39936635 197.85712371 194.52778582 197.85767553 192.65622711 197.85262108 C174.35654336 197.80841014 158.79230721 200.0487022 144.93426514 213.13960266 C135.1618012 223.50375875 131.77980007 236.47273144 131.79382324 250.39901733 C131.79085212 251.32178905 131.787881 252.24456077 131.78481984 253.19529527 C131.77614517 256.2888008 131.77462562 259.38226757 131.77313232 262.4757843 C131.7685032 264.6934772 131.76347841 266.9111693 131.75808716 269.12886047 C131.74496837 275.15603711 131.73851895 281.1832026 131.7340765 287.21039128 C131.73114432 290.97797435 131.72703919 294.74555438 131.72257233 298.51313591 C131.71046389 308.95574946 131.70008226 319.39836122 131.69669724 329.84098148 C131.69647767 330.50893489 131.6962581 331.17688829 131.69603188 331.86508271 C131.69581361 332.53458989 131.69559533 333.20409707 131.69537044 333.89389235 C131.69492698 335.25045399 131.69448041 336.60701563 131.69403076 337.96357727 C131.69380933 338.63647159 131.6935879 339.30936591 131.69335976 340.00265097 C131.68941603 350.89358764 131.67197444 361.78445723 131.64867124 372.67536802 C131.62490901 383.87174602 131.61275067 395.06809964 131.61132932 406.26450533 C131.61028272 412.54480543 131.60440604 418.82501093 131.5865097 425.10528755 C131.56999029 431.01748966 131.56789238 436.92952646 131.57664871 442.84174347 C131.57741707 445.00560131 131.57310308 447.16946818 131.56319046 449.33330345 C131.4855176 467.35292722 132.75706073 482.66323478 145.62176514 496.57319641 C155.77862991 505.96682857 168.29788694 511.01970945 182.15301514 510.54194641 C195.05975051 509.23677092 207.46254738 503.94823589 215.93035889 493.88960266 C222.15912679 485.83220565 227.03539264 476.37678877 227.07293034 465.97348404 C227.07840478 465.11905472 227.08387922 464.2646254 227.08951956 463.38430429 C227.09049767 462.45045521 227.09147577 461.51660614 227.09248352 460.55445862 C227.09989049 459.06087723 227.09989049 459.06087723 227.10744709 457.53712249 C227.12283906 454.19140144 227.13118735 450.8456996 227.1395874 447.49995422 C227.14916459 445.10530426 227.15917457 442.710656 227.16958618 440.31600952 C227.19384576 434.48251231 227.21358192 428.64901235 227.23133893 422.815492 C227.25224331 416.0277967 227.27870197 409.24012652 227.30551039 402.45245239 C227.35317152 390.34769335 227.39643972 378.24292275 227.43695068 366.13813782 C227.47631313 354.3793396 227.51774116 342.62055166 227.56195068 330.86177063 C227.56603709 329.77458708 227.56603709 329.77458708 227.57020605 328.66544023 C227.58388566 325.02939333 227.5976059 321.39334658 227.61134636 317.7572999 C227.72528791 287.59178564 227.83129408 257.42625069 227.93426514 227.26069641 C244.76426514 227.26069641 261.59426514 227.26069641 278.93426514 227.26069641 C279.02264317 258.13182497 279.09642384 289.00283026 279.13852645 319.87404604 C279.14352857 323.52848311 279.14870593 327.1829199 279.1539917 330.83735657 C279.15504094 331.56481098 279.15609018 332.29226539 279.15717122 333.04176387 C279.17452031 344.78120645 279.20602726 356.52056973 279.24287632 368.25996545 C279.28043951 380.32858951 279.30253327 392.39717239 279.31061912 404.4658525 C279.31558879 411.23500775 279.32742122 418.00399848 279.35718536 424.77309418 C279.38455924 431.15885848 279.3926661 437.54437172 279.38669586 443.93018913 C279.38778634 446.26001035 279.39560795 448.58984093 279.41108704 450.91961098 C279.61761121 483.63932191 271.75719566 509.61894403 248.87176514 533.76069641 C231.50941535 550.69257472 208.14350626 560.34788896 183.93426514 561.26069641 C183.25106201 561.30065735 182.56785889 561.34061829 181.86395264 561.38179016 C154.61939129 562.26231781 129.10689573 551.534371 109.33978271 533.11494446 C88.85165681 513.31313319 80.18134974 486.59711608 79.70381212 458.60072625 C79.66197808 453.8128152 79.6652507 449.02554372 79.67547607 444.23750305 C79.67275944 442.07703535 79.66919476 439.91656857 79.66485596 437.75610352 C79.65580914 431.93788187 79.65924428 426.11973189 79.66561413 420.30150914 C79.67071499 414.181412 79.66597134 408.06132056 79.6628418 401.94122314 C79.65921371 391.66692516 79.66397049 381.39265602 79.67352295 371.11836243 C79.68440233 359.28101445 79.68088095 347.44373541 79.66987014 335.60638911 C79.66076072 325.40032334 79.65952988 315.19427819 79.66474748 304.98820966 C79.66784752 298.91136926 79.66833113 292.83456112 79.6616745 286.75772285 C79.65584834 281.04070537 79.65999323 275.32377576 79.67146301 269.60676765 C79.67408178 267.52282862 79.67339291 265.43888205 79.66893768 263.35494614 C79.60302741 229.36126296 85.38299336 200.79589959 109.58660889 175.48725891 C134.39587492 151.80734272 164.57266025 146.92291628 197.52581787 147.00532532 C199.40075329 147.00256603 201.27568753 146.99888051 203.15061951 146.99435425 C207.1450859 146.98632687 211.13949663 146.98405201 215.13397026 146.98630142 C221.46076292 146.98916559 227.78744674 146.97467111 234.11421204 146.95732117 C252.08993952 146.91057786 270.06565716 146.88634314 288.04144287 146.87983704 C298.00222585 146.87608003 307.9628831 146.85801094 317.92361218 146.82474267 C324.20342769 146.80461838 330.48291706 146.80211261 336.76275146 146.81302285 C340.67373664 146.81564067 344.58453383 146.80157596 348.49547005 146.78294182 C350.29811541 146.77764766 352.100796 146.7790687 353.90342712 146.78797722 C368.12603986 146.85256179 379.27650049 145.07627877 390.93426514 136.26069641 C391.82114014 135.64194641 392.70801514 135.02319641 393.62176514 134.38569641 C402.87610401 125.88170934 408.19464278 113.86257955 409.15301514 101.42085266 C409.58946461 87.29080093 404.78691491 74.59831821 395.10223389 64.29585266 C382.01405055 52.00946794 367.06280535 49.95119292 349.77929688 50 C348.25446599 49.99697538 346.72963662 49.99308434 345.2048099 49.98840743 C341.03582329 49.97815854 336.86692297 49.98030131 332.69792938 49.98458803 C328.19335512 49.98706095 323.68880132 49.97803401 319.18423462 49.97055054 C310.36698615 49.95781675 301.54976815 49.95600824 292.73251203 49.9583508 C285.56276774 49.96013577 278.39303268 49.95838047 271.22328949 49.95412636 C270.20180285 49.95353117 269.18031621 49.95293598 268.12787543 49.95232276 C266.05252101 49.95111097 263.97716659 49.94989683 261.90181217 49.94868038 C242.44887268 49.9378097 222.99595054 49.93996496 203.54301009 49.94606522 C185.76366758 49.95123267 167.9843799 49.93998264 150.20504823 49.92096701 C131.93235834 49.90157414 113.65969437 49.89333523 95.38699412 49.89709026 C85.13508599 49.89900027 74.88322449 49.89653435 64.63132477 49.88237572 C55.90263499 49.87044241 47.17402055 49.86907879 38.4453297 49.88116588 C33.99599137 49.88704118 29.54679073 49.88819153 25.0974617 49.87616348 C21.01624095 49.86525925 16.93527208 49.86846153 12.85406289 49.88242517 C11.38575106 49.88505969 9.9174192 49.88274514 8.44912711 49.8746893 C-7.78577976 49.7918715 -23.08887943 52.15845269 -35.44464111 63.50679016 C-45.61872678 74.51441538 -50.56765113 87.1786653 -50.00323486 102.13569641 C-48.59512247 117.06823718 -41.65982371 127.40324375 -30.87823486 137.26069641 C-20.07777761 144.94102157 -10.23215919 146.55732774 2.74285889 146.67475891 C4.0780809 146.69349467 5.41329137 146.71306983 6.74848938 146.73344421 C10.24180257 146.7845176 13.73515404 146.82427488 17.2286377 146.86158752 C20.80183146 146.90178379 24.37487185 146.95270081 27.94793701 147.00288391 C34.94331976 147.10035223 41.93858705 147.18006682 48.93426514 147.26069641 C48.93426514 163.76069641 48.93426514 180.26069641 48.93426514 197.26069641 C40.90731929 197.3451412 32.88203075 197.42520832 24.85502625 197.46769714 C21.1151278 197.48861046 17.37560624 197.51643631 13.63592529 197.56245422 C-18.35470523 197.94541482 -18.35470523 197.94541482 -33.06573486 193.26069641 C-34.43012695 192.83675598 -34.43012695 192.83675598 -35.82208252 192.4042511 C-37.9138022 191.69056897 -39.91853917 190.89994162 -41.94073486 190.01069641 C-42.63433105 189.7140509 -43.32792725 189.4174054 -44.0425415 189.11177063 C-54.82825773 184.32891923 -63.5844985 177.36691212 -72.06573486 169.26069641 C-72.74120361 168.65999329 -73.41667236 168.05929016 -74.11260986 167.44038391 C-89.7136708 153.0250036 -99.87294438 130.21748663 -101.27203369 109.15498352 C-101.36937408 105.77070734 -101.39485317 102.39632102 -101.37823486 99.01069641 C-101.37259521 97.81210999 -101.36695557 96.61352356 -101.36114502 95.37861633 C-101.24511149 86.93057137 -100.69894607 79.33918965 -98.06573486 71.26069641 C-97.86705811 70.63727356 -97.66838135 70.01385071 -97.46368408 69.37153625 C-89.00751081 43.3569268 -72.10806452 22.58163899 -47.75079346 9.90888977 C-32.37995353 2.32703079 -17.00400243 -0.04548296 0 0 Z " fill="#FFFFFF" transform="translate(844.0657348632813,851.7393035888672)"/>
</svg>
