<svg width="24" height="24" viewBox="0 0 24 24" fill="none" xmlns="http://www.w3.org/2000/svg">
<g id="show">
<g id="show_2">
<path fill-rule="evenodd" clip-rule="evenodd" d="M12 8.15C9.94897 8.15 8.42312 9.95217 8.42312 12C8.42312 14.0478 9.94897 15.85 12 15.85C14.051 15.85 15.5769 14.0478 15.5769 12C15.5769 9.95217 14.051 8.15 12 8.15ZM9.85169 12C9.85169 10.5684 10.8891 9.55 12 9.55C13.1109 9.55 14.1483 10.5684 14.1483 12C14.1483 13.4316 13.1109 14.45 12 14.45C10.8891 14.45 9.85169 13.4316 9.85169 12Z" fill="#002850"/>
<path fill-rule="evenodd" clip-rule="evenodd" d="M12 5C9.79421 5 7.79484 5.95414 6.19011 7.08699C4.57962 8.2239 3.30462 9.58438 2.53275 10.4985L2.52631 10.5062C2.18162 10.9265 2 11.4592 2 12C2 12.5408 2.18162 13.0735 2.52631 13.4938L2.53275 13.5015C3.30462 14.4156 4.57962 15.7761 6.19011 16.913C7.79484 18.0459 9.79421 19 12 19C14.2058 19 16.2052 18.0459 17.8099 16.913C19.4204 15.7761 20.6954 14.4156 21.4673 13.5015L21.4737 13.4938C21.8184 13.0735 22 12.5408 22 12C22 11.4592 21.8184 10.9265 21.4737 10.5062L21.4673 10.4985C20.6954 9.58438 19.4204 8.2239 17.8099 7.08699C16.2052 5.95414 14.2058 5 12 5ZM3.42857 12C3.42857 11.7627 3.50861 11.5449 3.63706 11.3866C4.36834 10.5211 5.55364 9.26171 7.0251 8.22295C8.50481 7.17836 10.2125 6.4 12 6.4C13.7875 6.4 15.4952 7.17836 16.9749 8.22295C18.4464 9.26171 19.6316 10.5211 20.3629 11.3866C20.4914 11.5449 20.5714 11.7627 20.5714 12C20.5714 12.2373 20.4914 12.4551 20.3629 12.6134C19.6316 13.4789 18.4464 14.7383 16.9749 15.7771C15.4952 16.8216 13.7875 17.6 12 17.6C10.2125 17.6 8.50481 16.8216 7.0251 15.7771C5.55364 14.7383 4.36834 13.4789 3.63706 12.6134C3.50861 12.4551 3.42857 12.2373 3.42857 12Z" fill="#002850"/>
</g>
</g>
</svg>
