<svg width="24" height="24" viewBox="0 0 24 24" fill="none" xmlns="http://www.w3.org/2000/svg">
<path fill-rule="evenodd" clip-rule="evenodd" d="M2 12C2 6.47715 6.47715 2 12 2C17.5228 2 22 6.47715 22 12C22 17.5228 17.5228 22 12 22C6.47715 22 2 17.5228 2 12ZM12 3.42857C7.26613 3.42857 3.42857 7.26613 3.42857 12C3.42857 16.7339 7.26613 20.5714 12 20.5714C16.7339 20.5714 20.5714 16.7339 20.5714 12C20.5714 7.26613 16.7339 3.42857 12 3.42857Z" fill="#A42205"/>
<path d="M12 14.8571C11.211 14.8571 10.5714 15.4967 10.5714 16.2857C10.5714 17.0747 11.211 17.7143 12 17.7143C12.789 17.7143 13.4286 17.0747 13.4286 16.2857C13.4286 15.4967 12.789 14.8571 12 14.8571Z" fill="#A42205"/>
<path d="M12 6.28571C12.3945 6.28571 12.7143 6.60551 12.7143 7V11.2857C12.7143 11.6802 12.3945 12 12 12C11.6055 12 11.2857 11.6802 11.2857 11.2857V7C11.2857 6.60551 11.6055 6.28571 12 6.28571Z" fill="#A42205"/>
</svg>
