<svg width="24" height="24" viewBox="0 0 24 24" fill="none" xmlns="http://www.w3.org/2000/svg">
<g id="hide">
<g id="hide_2">
<path fill-rule="evenodd" clip-rule="evenodd" d="M20.3982 4.1606C20.665 3.879 20.6458 3.44105 20.3552 3.18242C20.0647 2.92379 19.6128 2.94241 19.346 3.22402L16.343 6.3932C15.0031 5.68648 13.5254 5.29919 12.0162 5.2659L12 5.26572C9.80057 5.26572 7.80417 6.17833 6.19857 7.26537C4.58784 8.35587 3.31227 9.66113 2.53971 10.5385L2.53311 10.5461C2.18532 10.9528 2 11.4713 2 12C2 12.5287 2.18532 13.0471 2.53311 13.4538L2.53561 13.4567C3.67551 14.7749 4.98257 15.9218 6.42008 16.8652L3.60178 19.8394C3.33494 20.121 3.35416 20.559 3.6447 20.8176C3.93525 21.0762 4.3871 21.0576 4.65394 20.776L8.03606 17.2067C8.04254 17.2002 8.04891 17.1934 8.05516 17.1866L16.9963 7.75072C17.0025 7.74438 17.0087 7.73791 17.0147 7.73131L20.3982 4.1606ZM12.9844 9.93766L10.0713 13.0119C9.93066 12.7014 9.85331 12.3561 9.85169 11.9987C9.85203 11.3635 10.0918 10.765 10.5019 10.3322C10.91 9.90154 11.4497 9.67186 11.9984 9.6714C12.3407 9.67321 12.6793 9.76428 12.9844 9.93766ZM12.0033 8.2868C12.7118 8.28995 13.3909 8.5104 13.9637 8.90416L15.3417 7.4499C14.2871 6.94922 13.1483 6.677 11.9919 6.65034C10.201 6.65258 8.49325 7.40076 7.01664 8.40047C5.54549 9.39648 4.36081 10.6037 3.6302 11.433C3.5049 11.5812 3.42857 11.7825 3.42857 12C3.42857 12.2184 3.50561 12.4207 3.63194 12.569C4.73508 13.8443 6.00384 14.943 7.39796 15.8332L9.05061 14.0891C8.64504 13.4755 8.4261 12.7482 8.42313 12.0028L8.42312 12.0001C8.42312 11.0334 8.78645 10.0956 9.44976 9.39563C10.1149 8.69364 11.0308 8.28679 12 8.28679L12.0033 8.2868Z" fill="#002850"/>
<path d="M19.0599 9.10007C19.3352 8.8262 19.7874 8.82048 20.07 9.08729C20.6351 9.62089 21.1089 10.1368 21.4618 10.5402L21.4669 10.5461C21.8147 10.9528 22 11.4712 22 12C22 12.5287 21.8147 13.0471 21.4669 13.4538L21.4603 13.4614C20.6878 14.3389 19.4122 15.6441 17.8014 16.7346C16.1958 17.8216 14.1994 18.7342 12 18.7342H11.4275C11.033 18.7342 10.7132 18.4243 10.7132 18.0419C10.7132 17.6596 11.033 17.3496 11.4275 17.3496H12C13.7939 17.3496 15.5045 16.6007 16.9834 15.5995C18.4545 14.6035 19.6392 13.3962 20.3698 12.5669C20.4951 12.4188 20.5714 12.2174 20.5714 12C20.5714 11.7822 20.4948 11.5805 20.3692 11.4323C20.0354 11.0508 19.5943 10.5712 19.0731 10.0791C18.7905 9.81225 18.7846 9.37394 19.0599 9.10007Z" fill="#002850"/>
<path d="M15.1197 13.8383C15.3064 13.5015 15.1761 13.0818 14.8285 12.9008C14.481 12.7198 14.048 12.8462 13.8613 13.183C13.6632 13.5402 13.3834 13.8284 13.0562 14.0242C12.7205 14.225 12.6163 14.6516 12.8235 14.977C13.0307 15.3023 13.4708 15.4033 13.8065 15.2024C14.3572 14.873 14.8081 14.4004 15.1197 13.8383Z" fill="#002850"/>
</g>
</g>
</svg>
